<mxfile host="app.diagrams.net" modified="2022-06-02T04:43:35.580Z" agent="5.0 (Windows NT 10.0; Win64; x64) AppleWebKit/537.36 (KHTML, like Gecko) Chrome/101.0.4951.67 Safari/537.36" etag="v-tt_R_DxxZVwmvt8DWM" version="18.2.0" type="github">
  <diagram name="Page-1" id="c7558073-3199-34d8-9f00-42111426c3f3">
    <mxGraphModel dx="1822" dy="1228" grid="0" gridSize="10" guides="1" tooltips="1" connect="1" arrows="1" fold="1" page="0" pageScale="1" pageWidth="826" pageHeight="1169" background="none" math="0" shadow="0">
      <root>
        <mxCell id="0" />
        <mxCell id="1" parent="0" />
        <mxCell id="t3ik7iQPuACF-C9qo4bP-114" style="edgeStyle=none;rounded=1;orthogonalLoop=1;jettySize=auto;html=1;exitX=1;exitY=0.5;exitDx=0;exitDy=0;entryX=0;entryY=0.5;entryDx=0;entryDy=0;strokeColor=#990000;strokeWidth=2;" edge="1" parent="1" source="4" target="t3ik7iQPuACF-C9qo4bP-108">
          <mxGeometry relative="1" as="geometry" />
        </mxCell>
        <mxCell id="4" value="连续失败N次&#xa;告警规则" style="whiteSpace=wrap;align=center;verticalAlign=middle;fontStyle=1;strokeWidth=3;fillColor=#FFFFCC" parent="1" vertex="1">
          <mxGeometry x="35" y="231" width="90" height="60" as="geometry" />
        </mxCell>
        <mxCell id="t3ik7iQPuACF-C9qo4bP-99" style="rounded=1;orthogonalLoop=1;jettySize=auto;html=1;entryX=0;entryY=0.5;entryDx=0;entryDy=0;strokeWidth=2;strokeColor=#990000;sketch=0;" edge="1" parent="1" source="10" target="t3ik7iQPuACF-C9qo4bP-98">
          <mxGeometry relative="1" as="geometry">
            <Array as="points" />
          </mxGeometry>
        </mxCell>
        <mxCell id="10" value="&lt;p style=&quot;margin: 0px; margin-top: 4px; text-align: center; text-decoration: underline;&quot;&gt;&lt;strong&gt;1个结果队列&lt;/strong&gt;&lt;/p&gt;&lt;hr&gt;&lt;p style=&quot;margin: 0px; margin-left: 8px;&quot;&gt;结果1&lt;/p&gt;&lt;p style=&quot;margin: 0px; margin-left: 8px;&quot;&gt;结果2&lt;br&gt;&lt;/p&gt;&lt;p style=&quot;margin: 0px; margin-left: 8px;&quot;&gt;结果3&lt;br&gt;结果4&lt;br&gt;结果5&lt;br&gt;结果6&lt;br&gt;&lt;/p&gt;" style="verticalAlign=middle;align=center;overflow=fill;fontSize=12;fontFamily=Helvetica;html=1;rounded=1;fontStyle=1;strokeWidth=3;fillColor=#E6FFCC;sketch=0;" parent="1" vertex="1">
          <mxGeometry x="1020.5" y="585" width="110" height="120" as="geometry" />
        </mxCell>
        <mxCell id="t3ik7iQPuACF-C9qo4bP-115" style="edgeStyle=none;rounded=1;orthogonalLoop=1;jettySize=auto;html=1;exitX=1;exitY=0.5;exitDx=0;exitDy=0;entryX=0;entryY=0.5;entryDx=0;entryDy=0;strokeColor=#990000;strokeWidth=2;sketch=0;" edge="1" parent="1" source="14" target="10">
          <mxGeometry relative="1" as="geometry" />
        </mxCell>
        <mxCell id="14" value="X次结果中出现&#xa;Y次失败&#xa;告警规则" style="whiteSpace=wrap;align=center;verticalAlign=middle;fontStyle=1;strokeWidth=3;fillColor=#FFFFCC;sketch=0;" parent="1" vertex="1">
          <mxGeometry x="867" y="614.4999999999999" width="90" height="60" as="geometry" />
        </mxCell>
        <mxCell id="15" value="告警并清空队列" style="whiteSpace=wrap;align=center;verticalAlign=middle;fontStyle=1;strokeWidth=3;fillColor=#FFFFCC;rounded=1;sketch=0;" parent="1" vertex="1">
          <mxGeometry x="1423" y="614.5" width="90" height="60" as="geometry" />
        </mxCell>
        <mxCell id="79" value="是" style="text;spacingTop=-5;align=center;fontStyle=1;sketch=0;" parent="1" vertex="1">
          <mxGeometry x="1352" y="614.5" width="30" height="20" as="geometry" />
        </mxCell>
        <mxCell id="t3ik7iQPuACF-C9qo4bP-105" style="edgeStyle=none;rounded=1;orthogonalLoop=1;jettySize=auto;html=1;exitX=1;exitY=0.5;exitDx=0;exitDy=0;strokeColor=#990000;strokeWidth=2;entryX=0;entryY=0.5;entryDx=0;entryDy=0;sketch=0;" edge="1" parent="1" source="t3ik7iQPuACF-C9qo4bP-98" target="15">
          <mxGeometry relative="1" as="geometry">
            <mxPoint x="1362" y="695" as="targetPoint" />
          </mxGeometry>
        </mxCell>
        <mxCell id="t3ik7iQPuACF-C9qo4bP-172" style="edgeStyle=none;rounded=1;sketch=0;orthogonalLoop=1;jettySize=auto;html=1;exitX=0.5;exitY=0;exitDx=0;exitDy=0;entryX=0.5;entryY=1;entryDx=0;entryDy=0;strokeColor=#990000;strokeWidth=2;fillColor=#FFCCCC;elbow=vertical;" edge="1" parent="1" source="t3ik7iQPuACF-C9qo4bP-98" target="t3ik7iQPuACF-C9qo4bP-101">
          <mxGeometry relative="1" as="geometry" />
        </mxCell>
        <mxCell id="t3ik7iQPuACF-C9qo4bP-98" value="&lt;b&gt;是否触发Y次&lt;br&gt;失败&lt;/b&gt;" style="rhombus;whiteSpace=wrap;html=1;fillColor=#FFCC99;rounded=1;strokeWidth=3;sketch=0;" vertex="1" parent="1">
          <mxGeometry x="1239.75" y="597" width="96.5" height="95" as="geometry" />
        </mxCell>
        <mxCell id="t3ik7iQPuACF-C9qo4bP-104" style="edgeStyle=none;rounded=1;orthogonalLoop=1;jettySize=auto;html=1;exitX=0;exitY=0.5;exitDx=0;exitDy=0;strokeColor=#990000;strokeWidth=2;sketch=0;" edge="1" parent="1" source="t3ik7iQPuACF-C9qo4bP-101">
          <mxGeometry relative="1" as="geometry">
            <mxPoint x="1182" y="645" as="targetPoint" />
            <Array as="points">
              <mxPoint x="1180" y="490" />
            </Array>
          </mxGeometry>
        </mxCell>
        <mxCell id="t3ik7iQPuACF-C9qo4bP-101" value="&lt;p style=&quot;margin: 0px; margin-top: 4px; text-align: center; text-decoration: underline;&quot;&gt;&lt;strong&gt;X个结果队列&lt;/strong&gt;&lt;/p&gt;&lt;hr&gt;&lt;p style=&quot;margin: 0px; margin-left: 8px;&quot;&gt;结果1&lt;/p&gt;&lt;p style=&quot;margin: 0px; margin-left: 8px;&quot;&gt;结果2&lt;br&gt;&lt;/p&gt;&lt;p style=&quot;margin: 0px; margin-left: 8px;&quot;&gt;结果3&lt;br&gt;结果4&lt;br&gt;结果5&lt;br&gt;结果6&lt;br&gt;&lt;/p&gt;" style="verticalAlign=middle;align=center;overflow=fill;fontSize=12;fontFamily=Helvetica;html=1;rounded=1;fontStyle=1;strokeWidth=3;fillColor=#E6FFCC;sketch=0;" vertex="1" parent="1">
          <mxGeometry x="1233" y="430" width="110" height="120" as="geometry" />
        </mxCell>
        <mxCell id="t3ik7iQPuACF-C9qo4bP-107" value="否" style="text;spacingTop=-5;align=center;fontStyle=1;sketch=0;" vertex="1" parent="1">
          <mxGeometry x="1300" y="575" width="30" height="20" as="geometry" />
        </mxCell>
        <mxCell id="t3ik7iQPuACF-C9qo4bP-112" style="edgeStyle=none;rounded=1;orthogonalLoop=1;jettySize=auto;html=1;exitX=1;exitY=0.5;exitDx=0;exitDy=0;entryX=0;entryY=0.5;entryDx=0;entryDy=0;strokeColor=#990000;strokeWidth=2;" edge="1" parent="1" source="t3ik7iQPuACF-C9qo4bP-108" target="t3ik7iQPuACF-C9qo4bP-110">
          <mxGeometry relative="1" as="geometry" />
        </mxCell>
        <mxCell id="t3ik7iQPuACF-C9qo4bP-108" value="&lt;p style=&quot;margin: 0px; margin-top: 4px; text-align: center; text-decoration: underline;&quot;&gt;&lt;strong&gt;1个结果队列&lt;/strong&gt;&lt;/p&gt;&lt;hr&gt;&lt;p style=&quot;margin: 0px; margin-left: 8px;&quot;&gt;结果1&lt;/p&gt;&lt;p style=&quot;margin: 0px; margin-left: 8px;&quot;&gt;结果2&lt;br&gt;&lt;/p&gt;&lt;p style=&quot;margin: 0px; margin-left: 8px;&quot;&gt;结果3&lt;br&gt;结果4&lt;br&gt;结果5&lt;br&gt;结果6&lt;br&gt;&lt;/p&gt;" style="verticalAlign=middle;align=center;overflow=fill;fontSize=12;fontFamily=Helvetica;html=1;rounded=1;fontStyle=1;strokeWidth=3;fillColor=#E6FFCC" vertex="1" parent="1">
          <mxGeometry x="188.5" y="201" width="110" height="120" as="geometry" />
        </mxCell>
        <mxCell id="t3ik7iQPuACF-C9qo4bP-118" style="edgeStyle=none;rounded=1;orthogonalLoop=1;jettySize=auto;html=1;exitX=1;exitY=0.5;exitDx=0;exitDy=0;entryX=0;entryY=0.5;entryDx=0;entryDy=0;strokeColor=#990000;strokeWidth=2;" edge="1" parent="1" source="t3ik7iQPuACF-C9qo4bP-110" target="t3ik7iQPuACF-C9qo4bP-116">
          <mxGeometry relative="1" as="geometry" />
        </mxCell>
        <mxCell id="t3ik7iQPuACF-C9qo4bP-119" style="edgeStyle=none;rounded=1;orthogonalLoop=1;jettySize=auto;html=1;exitX=0.5;exitY=0;exitDx=0;exitDy=0;entryX=0.5;entryY=1;entryDx=0;entryDy=0;strokeColor=#990000;strokeWidth=2;" edge="1" parent="1" source="t3ik7iQPuACF-C9qo4bP-110" target="t3ik7iQPuACF-C9qo4bP-111">
          <mxGeometry relative="1" as="geometry" />
        </mxCell>
        <mxCell id="t3ik7iQPuACF-C9qo4bP-110" value="&lt;b&gt;是否触发失败&lt;/b&gt;" style="rhombus;whiteSpace=wrap;html=1;fillColor=#FFCC99;rounded=1;strokeWidth=3;" vertex="1" parent="1">
          <mxGeometry x="407.75" y="213.5" width="96.5" height="95" as="geometry" />
        </mxCell>
        <mxCell id="t3ik7iQPuACF-C9qo4bP-120" style="edgeStyle=none;rounded=1;orthogonalLoop=1;jettySize=auto;html=1;exitX=0;exitY=0.5;exitDx=0;exitDy=0;strokeColor=#990000;strokeWidth=2;" edge="1" parent="1" source="t3ik7iQPuACF-C9qo4bP-111">
          <mxGeometry relative="1" as="geometry">
            <mxPoint x="350" y="260" as="targetPoint" />
            <Array as="points">
              <mxPoint x="350" y="90" />
            </Array>
          </mxGeometry>
        </mxCell>
        <mxCell id="t3ik7iQPuACF-C9qo4bP-111" value="&lt;p style=&quot;margin: 0px; margin-top: 4px; text-align: center; text-decoration: underline;&quot;&gt;&lt;strong&gt;N个结果队列&lt;/strong&gt;&lt;/p&gt;&lt;hr&gt;&lt;p style=&quot;margin: 0px; margin-left: 8px;&quot;&gt;结果1&lt;/p&gt;&lt;p style=&quot;margin: 0px; margin-left: 8px;&quot;&gt;结果2&lt;br&gt;&lt;/p&gt;&lt;p style=&quot;margin: 0px; margin-left: 8px;&quot;&gt;结果3&lt;br&gt;结果4&lt;br&gt;结果5&lt;br&gt;结果6&lt;br&gt;&lt;/p&gt;" style="verticalAlign=middle;align=center;overflow=fill;fontSize=12;fontFamily=Helvetica;html=1;rounded=1;fontStyle=1;strokeWidth=3;fillColor=#E6FFCC" vertex="1" parent="1">
          <mxGeometry x="401" y="30" width="110" height="120" as="geometry" />
        </mxCell>
        <mxCell id="t3ik7iQPuACF-C9qo4bP-116" value="告警并清空队列" style="whiteSpace=wrap;align=center;verticalAlign=middle;fontStyle=1;strokeWidth=3;fillColor=#FFFFCC;rounded=1;" vertex="1" parent="1">
          <mxGeometry x="589.9999999999999" y="231" width="90" height="60" as="geometry" />
        </mxCell>
        <mxCell id="t3ik7iQPuACF-C9qo4bP-117" value="是" style="text;spacingTop=-5;align=center;fontStyle=1" vertex="1" parent="1">
          <mxGeometry x="511" y="231" width="30" height="20" as="geometry" />
        </mxCell>
        <mxCell id="t3ik7iQPuACF-C9qo4bP-121" value="否" style="text;spacingTop=-5;align=center;fontStyle=1" vertex="1" parent="1">
          <mxGeometry x="470" y="180" width="30" height="20" as="geometry" />
        </mxCell>
        <mxCell id="t3ik7iQPuACF-C9qo4bP-122" value="1" style="rounded=0;whiteSpace=wrap;html=1;strokeWidth=3;fillColor=#FFCCCC;fontStyle=1" vertex="1" parent="1">
          <mxGeometry x="980" y="276.5" width="20" height="50" as="geometry" />
        </mxCell>
        <mxCell id="t3ik7iQPuACF-C9qo4bP-123" value="2" style="rounded=0;whiteSpace=wrap;html=1;strokeWidth=3;fillColor=#FFCCCC;fontStyle=1" vertex="1" parent="1">
          <mxGeometry x="1000" y="276.5" width="20" height="50" as="geometry" />
        </mxCell>
        <mxCell id="t3ik7iQPuACF-C9qo4bP-135" value="3" style="rounded=0;whiteSpace=wrap;html=1;strokeWidth=3;fillColor=#FFCCCC;fontStyle=1" vertex="1" parent="1">
          <mxGeometry x="1020" y="276.5" width="20" height="50" as="geometry" />
        </mxCell>
        <mxCell id="t3ik7iQPuACF-C9qo4bP-136" value="4" style="rounded=0;whiteSpace=wrap;html=1;strokeWidth=3;fillColor=#FFCCCC;fontStyle=1" vertex="1" parent="1">
          <mxGeometry x="1040" y="276.5" width="20" height="50" as="geometry" />
        </mxCell>
        <mxCell id="t3ik7iQPuACF-C9qo4bP-137" value="5" style="rounded=0;whiteSpace=wrap;html=1;strokeWidth=3;fillColor=#FFCCCC;fontStyle=1" vertex="1" parent="1">
          <mxGeometry x="1060" y="276.5" width="20" height="50" as="geometry" />
        </mxCell>
        <mxCell id="t3ik7iQPuACF-C9qo4bP-138" value="6" style="rounded=0;whiteSpace=wrap;html=1;strokeWidth=3;fillColor=#FFCCCC;fontStyle=1" vertex="1" parent="1">
          <mxGeometry x="1080" y="276.5" width="20" height="50" as="geometry" />
        </mxCell>
        <mxCell id="t3ik7iQPuACF-C9qo4bP-139" value="7" style="rounded=0;whiteSpace=wrap;html=1;strokeWidth=3;fillColor=#FFCCCC;fontStyle=1" vertex="1" parent="1">
          <mxGeometry x="1100" y="276.5" width="20" height="50" as="geometry" />
        </mxCell>
        <mxCell id="t3ik7iQPuACF-C9qo4bP-140" value="..." style="rounded=0;whiteSpace=wrap;html=1;strokeWidth=3;fillColor=#FFCCCC;fontStyle=1" vertex="1" parent="1">
          <mxGeometry x="1120" y="276.5" width="20" height="50" as="geometry" />
        </mxCell>
        <mxCell id="t3ik7iQPuACF-C9qo4bP-141" value="..." style="rounded=0;whiteSpace=wrap;html=1;strokeWidth=3;fillColor=#FFCCCC;fontStyle=1" vertex="1" parent="1">
          <mxGeometry x="1140" y="276.5" width="20" height="50" as="geometry" />
        </mxCell>
        <mxCell id="t3ik7iQPuACF-C9qo4bP-142" value="33" style="rounded=0;whiteSpace=wrap;html=1;strokeWidth=3;fillColor=#FFCCCC;fontStyle=1" vertex="1" parent="1">
          <mxGeometry x="1160" y="276.5" width="20" height="50" as="geometry" />
        </mxCell>
        <mxCell id="t3ik7iQPuACF-C9qo4bP-143" value="34" style="rounded=0;whiteSpace=wrap;html=1;strokeWidth=3;fillColor=#FFCCCC;fontStyle=1" vertex="1" parent="1">
          <mxGeometry x="1180" y="276.5" width="20" height="50" as="geometry" />
        </mxCell>
        <mxCell id="t3ik7iQPuACF-C9qo4bP-145" value="35" style="rounded=0;whiteSpace=wrap;html=1;strokeWidth=3;fillColor=#FFCCCC;fontStyle=1" vertex="1" parent="1">
          <mxGeometry x="1200" y="276.5" width="20" height="50" as="geometry" />
        </mxCell>
        <mxCell id="t3ik7iQPuACF-C9qo4bP-147" value="36" style="rounded=0;whiteSpace=wrap;html=1;strokeWidth=3;fillColor=#FFCCCC;fontStyle=1" vertex="1" parent="1">
          <mxGeometry x="1220" y="276.5" width="20" height="50" as="geometry" />
        </mxCell>
        <mxCell id="t3ik7iQPuACF-C9qo4bP-148" value="37" style="rounded=0;whiteSpace=wrap;html=1;strokeWidth=3;fillColor=#FFCCCC;fontStyle=1" vertex="1" parent="1">
          <mxGeometry x="1240" y="276.5" width="20" height="50" as="geometry" />
        </mxCell>
        <mxCell id="t3ik7iQPuACF-C9qo4bP-149" value="38" style="rounded=0;whiteSpace=wrap;html=1;strokeWidth=3;fillColor=#FFCCCC;fontStyle=1" vertex="1" parent="1">
          <mxGeometry x="1260" y="276.5" width="20" height="50" as="geometry" />
        </mxCell>
        <mxCell id="t3ik7iQPuACF-C9qo4bP-150" value="..." style="rounded=0;whiteSpace=wrap;html=1;strokeWidth=3;fillColor=#FFCCCC;fontStyle=1" vertex="1" parent="1">
          <mxGeometry x="1280" y="276.5" width="20" height="50" as="geometry" />
        </mxCell>
        <mxCell id="t3ik7iQPuACF-C9qo4bP-151" value="..." style="rounded=0;whiteSpace=wrap;html=1;strokeWidth=3;fillColor=#FFCCCC;fontStyle=1" vertex="1" parent="1">
          <mxGeometry x="1300" y="276.5" width="20" height="50" as="geometry" />
        </mxCell>
        <mxCell id="t3ik7iQPuACF-C9qo4bP-152" value="94" style="rounded=0;whiteSpace=wrap;html=1;strokeWidth=3;fillColor=#FFCCCC;fontStyle=1" vertex="1" parent="1">
          <mxGeometry x="1320" y="276.5" width="20" height="50" as="geometry" />
        </mxCell>
        <mxCell id="t3ik7iQPuACF-C9qo4bP-153" value="95" style="rounded=0;whiteSpace=wrap;html=1;strokeWidth=3;fillColor=#FFCCCC;fontStyle=1" vertex="1" parent="1">
          <mxGeometry x="1340" y="276.5" width="20" height="50" as="geometry" />
        </mxCell>
        <mxCell id="t3ik7iQPuACF-C9qo4bP-154" value="96" style="rounded=0;whiteSpace=wrap;html=1;strokeWidth=3;fillColor=#FFCCCC;fontStyle=1" vertex="1" parent="1">
          <mxGeometry x="1360" y="276.5" width="20" height="50" as="geometry" />
        </mxCell>
        <mxCell id="t3ik7iQPuACF-C9qo4bP-155" value="97" style="rounded=0;whiteSpace=wrap;html=1;strokeWidth=3;fillColor=#FFCCCC;fontStyle=1" vertex="1" parent="1">
          <mxGeometry x="1380" y="276.5" width="20" height="50" as="geometry" />
        </mxCell>
        <mxCell id="t3ik7iQPuACF-C9qo4bP-156" value="98" style="rounded=0;whiteSpace=wrap;html=1;strokeWidth=3;fillColor=#FFCCCC;fontStyle=1" vertex="1" parent="1">
          <mxGeometry x="1400" y="276.5" width="20" height="50" as="geometry" />
        </mxCell>
        <mxCell id="t3ik7iQPuACF-C9qo4bP-157" value="99" style="rounded=0;whiteSpace=wrap;html=1;strokeWidth=3;fillColor=#FFCCCC;fontStyle=1" vertex="1" parent="1">
          <mxGeometry x="1420" y="276.5" width="20" height="50" as="geometry" />
        </mxCell>
        <mxCell id="t3ik7iQPuACF-C9qo4bP-158" value="..." style="rounded=0;whiteSpace=wrap;html=1;strokeWidth=3;fillColor=#FFCCCC;fontStyle=1" vertex="1" parent="1">
          <mxGeometry x="1440" y="276.5" width="20" height="50" as="geometry" />
        </mxCell>
        <mxCell id="t3ik7iQPuACF-C9qo4bP-163" value="" style="rounded=1;whiteSpace=wrap;html=1;dashed=1;strokeColor=#FF8000;strokeWidth=3;fillColor=none;" vertex="1" parent="1">
          <mxGeometry x="970" y="268.5" width="140" height="66.5" as="geometry" />
        </mxCell>
        <mxCell id="t3ik7iQPuACF-C9qo4bP-164" value="" style="rounded=1;whiteSpace=wrap;html=1;dashed=1;strokeColor=#FFCC99;strokeWidth=3;fillColor=none;" vertex="1" parent="1">
          <mxGeometry x="1150" y="268.25" width="140" height="66.5" as="geometry" />
        </mxCell>
        <mxCell id="t3ik7iQPuACF-C9qo4bP-165" value="" style="endArrow=classic;startArrow=classic;html=1;rounded=1;sketch=0;strokeColor=#990000;strokeWidth=2;fillColor=#FFCCCC;elbow=vertical;entryX=0.5;entryY=1;entryDx=0;entryDy=0;dashed=1;exitX=0.5;exitY=0;exitDx=0;exitDy=0;" edge="1" parent="1" source="10" target="t3ik7iQPuACF-C9qo4bP-163">
          <mxGeometry width="50" height="50" relative="1" as="geometry">
            <mxPoint x="1050" y="401" as="sourcePoint" />
            <mxPoint x="1100" y="351" as="targetPoint" />
            <Array as="points">
              <mxPoint x="1076" y="440" />
              <mxPoint x="1040" y="440" />
            </Array>
          </mxGeometry>
        </mxCell>
        <mxCell id="t3ik7iQPuACF-C9qo4bP-166" value="第一次&lt;br&gt;匹配" style="text;html=1;strokeColor=none;fillColor=none;align=center;verticalAlign=middle;whiteSpace=wrap;rounded=0;glass=0;dashed=1;fontStyle=1" vertex="1" parent="1">
          <mxGeometry x="1040" y="344" width="60" height="30" as="geometry" />
        </mxCell>
        <mxCell id="t3ik7iQPuACF-C9qo4bP-167" value="" style="endArrow=classic;startArrow=classic;html=1;rounded=1;sketch=0;strokeColor=#990000;strokeWidth=2;fillColor=#FFCCCC;elbow=vertical;entryX=0.5;entryY=1;entryDx=0;entryDy=0;dashed=1;exitX=0.5;exitY=0;exitDx=0;exitDy=0;" edge="1" parent="1" source="t3ik7iQPuACF-C9qo4bP-101" target="t3ik7iQPuACF-C9qo4bP-164">
          <mxGeometry width="50" height="50" relative="1" as="geometry">
            <mxPoint x="1090" y="403" as="sourcePoint" />
            <mxPoint x="1150" y="370" as="targetPoint" />
            <Array as="points">
              <mxPoint x="1288" y="380" />
              <mxPoint x="1220" y="380" />
            </Array>
          </mxGeometry>
        </mxCell>
        <mxCell id="t3ik7iQPuACF-C9qo4bP-168" value="第N次&lt;br&gt;匹配" style="text;html=1;strokeColor=none;fillColor=none;align=center;verticalAlign=middle;whiteSpace=wrap;rounded=0;glass=0;dashed=1;fontStyle=1" vertex="1" parent="1">
          <mxGeometry x="1227" y="344" width="60" height="30" as="geometry" />
        </mxCell>
        <mxCell id="t3ik7iQPuACF-C9qo4bP-171" value="" style="endArrow=classic;html=1;rounded=1;dashed=1;sketch=0;strokeColor=#990000;strokeWidth=2;fillColor=#FFCCCC;elbow=vertical;" edge="1" parent="1">
          <mxGeometry width="50" height="50" relative="1" as="geometry">
            <mxPoint x="1112" y="358.5" as="sourcePoint" />
            <mxPoint x="1195" y="359" as="targetPoint" />
            <Array as="points">
              <mxPoint x="1131.5" y="358.5" />
            </Array>
          </mxGeometry>
        </mxCell>
        <mxCell id="t3ik7iQPuACF-C9qo4bP-173" value="" style="rounded=1;whiteSpace=wrap;html=1;glass=0;strokeColor=#990000;strokeWidth=2;fillColor=none;" vertex="1" parent="1">
          <mxGeometry x="838" y="403" width="703" height="325" as="geometry" />
        </mxCell>
        <mxCell id="t3ik7iQPuACF-C9qo4bP-174" value="数据库结果序表" style="text;html=1;strokeColor=none;fillColor=none;align=center;verticalAlign=middle;whiteSpace=wrap;rounded=0;glass=0;fontStyle=1" vertex="1" parent="1">
          <mxGeometry x="870" y="285" width="91" height="30" as="geometry" />
        </mxCell>
        <mxCell id="t3ik7iQPuACF-C9qo4bP-175" value="1" style="rounded=0;whiteSpace=wrap;html=1;strokeWidth=3;fillColor=#FFCCCC;fontStyle=1" vertex="1" parent="1">
          <mxGeometry x="149" y="-109.75" width="20" height="50" as="geometry" />
        </mxCell>
        <mxCell id="t3ik7iQPuACF-C9qo4bP-176" value="2" style="rounded=0;whiteSpace=wrap;html=1;strokeWidth=3;fillColor=#FFCCCC;fontStyle=1" vertex="1" parent="1">
          <mxGeometry x="169" y="-109.75" width="20" height="50" as="geometry" />
        </mxCell>
        <mxCell id="t3ik7iQPuACF-C9qo4bP-177" value="3" style="rounded=0;whiteSpace=wrap;html=1;strokeWidth=3;fillColor=#FFCCCC;fontStyle=1" vertex="1" parent="1">
          <mxGeometry x="189" y="-109.75" width="20" height="50" as="geometry" />
        </mxCell>
        <mxCell id="t3ik7iQPuACF-C9qo4bP-178" value="4" style="rounded=0;whiteSpace=wrap;html=1;strokeWidth=3;fillColor=#FFCCCC;fontStyle=1" vertex="1" parent="1">
          <mxGeometry x="209" y="-109.75" width="20" height="50" as="geometry" />
        </mxCell>
        <mxCell id="t3ik7iQPuACF-C9qo4bP-179" value="5" style="rounded=0;whiteSpace=wrap;html=1;strokeWidth=3;fillColor=#FFCCCC;fontStyle=1" vertex="1" parent="1">
          <mxGeometry x="229" y="-109.75" width="20" height="50" as="geometry" />
        </mxCell>
        <mxCell id="t3ik7iQPuACF-C9qo4bP-180" value="6" style="rounded=0;whiteSpace=wrap;html=1;strokeWidth=3;fillColor=#FFCCCC;fontStyle=1" vertex="1" parent="1">
          <mxGeometry x="249" y="-109.75" width="20" height="50" as="geometry" />
        </mxCell>
        <mxCell id="t3ik7iQPuACF-C9qo4bP-181" value="7" style="rounded=0;whiteSpace=wrap;html=1;strokeWidth=3;fillColor=#FFCCCC;fontStyle=1" vertex="1" parent="1">
          <mxGeometry x="269" y="-109.75" width="20" height="50" as="geometry" />
        </mxCell>
        <mxCell id="t3ik7iQPuACF-C9qo4bP-182" value="..." style="rounded=0;whiteSpace=wrap;html=1;strokeWidth=3;fillColor=#FFCCCC;fontStyle=1" vertex="1" parent="1">
          <mxGeometry x="289" y="-109.75" width="20" height="50" as="geometry" />
        </mxCell>
        <mxCell id="t3ik7iQPuACF-C9qo4bP-183" value="..." style="rounded=0;whiteSpace=wrap;html=1;strokeWidth=3;fillColor=#FFCCCC;fontStyle=1" vertex="1" parent="1">
          <mxGeometry x="309" y="-109.75" width="20" height="50" as="geometry" />
        </mxCell>
        <mxCell id="t3ik7iQPuACF-C9qo4bP-184" value="33" style="rounded=0;whiteSpace=wrap;html=1;strokeWidth=3;fillColor=#FFCCCC;fontStyle=1" vertex="1" parent="1">
          <mxGeometry x="329" y="-109.75" width="20" height="50" as="geometry" />
        </mxCell>
        <mxCell id="t3ik7iQPuACF-C9qo4bP-185" value="34" style="rounded=0;whiteSpace=wrap;html=1;strokeWidth=3;fillColor=#FFCCCC;fontStyle=1" vertex="1" parent="1">
          <mxGeometry x="349" y="-109.75" width="20" height="50" as="geometry" />
        </mxCell>
        <mxCell id="t3ik7iQPuACF-C9qo4bP-186" value="35" style="rounded=0;whiteSpace=wrap;html=1;strokeWidth=3;fillColor=#FFCCCC;fontStyle=1" vertex="1" parent="1">
          <mxGeometry x="369" y="-109.75" width="20" height="50" as="geometry" />
        </mxCell>
        <mxCell id="t3ik7iQPuACF-C9qo4bP-187" value="36" style="rounded=0;whiteSpace=wrap;html=1;strokeWidth=3;fillColor=#FFCCCC;fontStyle=1" vertex="1" parent="1">
          <mxGeometry x="389" y="-109.75" width="20" height="50" as="geometry" />
        </mxCell>
        <mxCell id="t3ik7iQPuACF-C9qo4bP-188" value="37" style="rounded=0;whiteSpace=wrap;html=1;strokeWidth=3;fillColor=#FFCCCC;fontStyle=1" vertex="1" parent="1">
          <mxGeometry x="409" y="-109.75" width="20" height="50" as="geometry" />
        </mxCell>
        <mxCell id="t3ik7iQPuACF-C9qo4bP-189" value="38" style="rounded=0;whiteSpace=wrap;html=1;strokeWidth=3;fillColor=#FFCCCC;fontStyle=1" vertex="1" parent="1">
          <mxGeometry x="429" y="-109.75" width="20" height="50" as="geometry" />
        </mxCell>
        <mxCell id="t3ik7iQPuACF-C9qo4bP-190" value="..." style="rounded=0;whiteSpace=wrap;html=1;strokeWidth=3;fillColor=#FFCCCC;fontStyle=1" vertex="1" parent="1">
          <mxGeometry x="449" y="-109.75" width="20" height="50" as="geometry" />
        </mxCell>
        <mxCell id="t3ik7iQPuACF-C9qo4bP-191" value="..." style="rounded=0;whiteSpace=wrap;html=1;strokeWidth=3;fillColor=#FFCCCC;fontStyle=1" vertex="1" parent="1">
          <mxGeometry x="469" y="-109.75" width="20" height="50" as="geometry" />
        </mxCell>
        <mxCell id="t3ik7iQPuACF-C9qo4bP-192" value="94" style="rounded=0;whiteSpace=wrap;html=1;strokeWidth=3;fillColor=#FFCCCC;fontStyle=1" vertex="1" parent="1">
          <mxGeometry x="489" y="-109.75" width="20" height="50" as="geometry" />
        </mxCell>
        <mxCell id="t3ik7iQPuACF-C9qo4bP-193" value="95" style="rounded=0;whiteSpace=wrap;html=1;strokeWidth=3;fillColor=#FFCCCC;fontStyle=1" vertex="1" parent="1">
          <mxGeometry x="509" y="-109.75" width="20" height="50" as="geometry" />
        </mxCell>
        <mxCell id="t3ik7iQPuACF-C9qo4bP-194" value="96" style="rounded=0;whiteSpace=wrap;html=1;strokeWidth=3;fillColor=#FFCCCC;fontStyle=1" vertex="1" parent="1">
          <mxGeometry x="529" y="-109.75" width="20" height="50" as="geometry" />
        </mxCell>
        <mxCell id="t3ik7iQPuACF-C9qo4bP-195" value="97" style="rounded=0;whiteSpace=wrap;html=1;strokeWidth=3;fillColor=#FFCCCC;fontStyle=1" vertex="1" parent="1">
          <mxGeometry x="549" y="-109.75" width="20" height="50" as="geometry" />
        </mxCell>
        <mxCell id="t3ik7iQPuACF-C9qo4bP-196" value="98" style="rounded=0;whiteSpace=wrap;html=1;strokeWidth=3;fillColor=#FFCCCC;fontStyle=1" vertex="1" parent="1">
          <mxGeometry x="569" y="-109.75" width="20" height="50" as="geometry" />
        </mxCell>
        <mxCell id="t3ik7iQPuACF-C9qo4bP-197" value="99" style="rounded=0;whiteSpace=wrap;html=1;strokeWidth=3;fillColor=#FFCCCC;fontStyle=1" vertex="1" parent="1">
          <mxGeometry x="589" y="-109.75" width="20" height="50" as="geometry" />
        </mxCell>
        <mxCell id="t3ik7iQPuACF-C9qo4bP-198" value="..." style="rounded=0;whiteSpace=wrap;html=1;strokeWidth=3;fillColor=#FFCCCC;fontStyle=1" vertex="1" parent="1">
          <mxGeometry x="609" y="-109.75" width="20" height="50" as="geometry" />
        </mxCell>
        <mxCell id="t3ik7iQPuACF-C9qo4bP-199" value="" style="rounded=1;whiteSpace=wrap;html=1;dashed=1;strokeColor=#FF8000;strokeWidth=3;fillColor=none;" vertex="1" parent="1">
          <mxGeometry x="139" y="-117.75" width="140" height="66.5" as="geometry" />
        </mxCell>
        <mxCell id="t3ik7iQPuACF-C9qo4bP-200" value="" style="rounded=1;whiteSpace=wrap;html=1;dashed=1;strokeColor=#FFCC99;strokeWidth=3;fillColor=none;" vertex="1" parent="1">
          <mxGeometry x="319" y="-118" width="140" height="66.5" as="geometry" />
        </mxCell>
        <mxCell id="t3ik7iQPuACF-C9qo4bP-201" value="第一次&lt;br&gt;匹配" style="text;html=1;strokeColor=none;fillColor=none;align=center;verticalAlign=middle;whiteSpace=wrap;rounded=0;glass=0;dashed=1;fontStyle=1" vertex="1" parent="1">
          <mxGeometry x="209" y="-42.25" width="60" height="30" as="geometry" />
        </mxCell>
        <mxCell id="t3ik7iQPuACF-C9qo4bP-202" value="第N次&lt;br&gt;匹配" style="text;html=1;strokeColor=none;fillColor=none;align=center;verticalAlign=middle;whiteSpace=wrap;rounded=0;glass=0;dashed=1;fontStyle=1" vertex="1" parent="1">
          <mxGeometry x="396" y="-42.25" width="60" height="30" as="geometry" />
        </mxCell>
        <mxCell id="t3ik7iQPuACF-C9qo4bP-203" value="" style="endArrow=classic;html=1;rounded=1;dashed=1;sketch=0;strokeColor=#990000;strokeWidth=2;fillColor=#FFCCCC;elbow=vertical;" edge="1" parent="1">
          <mxGeometry width="50" height="50" relative="1" as="geometry">
            <mxPoint x="281" y="-27.75" as="sourcePoint" />
            <mxPoint x="364" y="-27.25" as="targetPoint" />
            <Array as="points">
              <mxPoint x="300.5" y="-27.75" />
            </Array>
          </mxGeometry>
        </mxCell>
        <mxCell id="t3ik7iQPuACF-C9qo4bP-204" value="数据库结果序表" style="text;html=1;strokeColor=none;fillColor=none;align=center;verticalAlign=middle;whiteSpace=wrap;rounded=0;glass=0;fontStyle=1" vertex="1" parent="1">
          <mxGeometry x="40" y="-101.25" width="90" height="30" as="geometry" />
        </mxCell>
        <mxCell id="t3ik7iQPuACF-C9qo4bP-205" value="" style="endArrow=classic;startArrow=classic;html=1;rounded=1;sketch=0;strokeColor=#990000;strokeWidth=2;fillColor=#FFCCCC;elbow=vertical;entryX=0.5;entryY=1;entryDx=0;entryDy=0;dashed=1;exitX=0.5;exitY=0;exitDx=0;exitDy=0;" edge="1" parent="1">
          <mxGeometry width="50" height="50" relative="1" as="geometry">
            <mxPoint x="1075.5" y="585" as="sourcePoint" />
            <mxPoint x="1040" y="335" as="targetPoint" />
            <Array as="points">
              <mxPoint x="1076" y="440" />
              <mxPoint x="1040" y="440" />
            </Array>
          </mxGeometry>
        </mxCell>
        <mxCell id="t3ik7iQPuACF-C9qo4bP-206" value="" style="endArrow=classic;startArrow=classic;html=1;rounded=1;sketch=0;strokeColor=#990000;strokeWidth=2;fillColor=#FFCCCC;elbow=vertical;entryX=0.5;entryY=1;entryDx=0;entryDy=0;dashed=1;" edge="1" parent="1">
          <mxGeometry width="50" height="50" relative="1" as="geometry">
            <mxPoint x="461" y="30" as="sourcePoint" />
            <mxPoint x="393" y="-49.25" as="targetPoint" />
            <Array as="points">
              <mxPoint x="461" y="-4" />
              <mxPoint x="393" y="-4" />
            </Array>
          </mxGeometry>
        </mxCell>
        <mxCell id="t3ik7iQPuACF-C9qo4bP-207" value="" style="endArrow=classic;startArrow=classic;html=1;rounded=1;sketch=0;strokeColor=#990000;strokeWidth=2;fillColor=#FFCCCC;elbow=vertical;entryX=0.5;entryY=1;entryDx=0;entryDy=0;dashed=1;exitX=0.5;exitY=0;exitDx=0;exitDy=0;" edge="1" parent="1">
          <mxGeometry width="50" height="50" relative="1" as="geometry">
            <mxPoint x="248.5" y="201" as="sourcePoint" />
            <mxPoint x="213" y="-49" as="targetPoint" />
            <Array as="points">
              <mxPoint x="249" y="56" />
              <mxPoint x="213" y="56" />
            </Array>
          </mxGeometry>
        </mxCell>
        <mxCell id="t3ik7iQPuACF-C9qo4bP-208" value="" style="rounded=1;whiteSpace=wrap;html=1;glass=0;strokeColor=#990000;strokeWidth=2;fillColor=none;" vertex="1" parent="1">
          <mxGeometry x="-4" y="4" width="730" height="340" as="geometry" />
        </mxCell>
        <mxCell id="t3ik7iQPuACF-C9qo4bP-209" value="序表结果队列先进先出，依次匹配" style="text;html=1;strokeColor=none;fillColor=none;align=center;verticalAlign=middle;whiteSpace=wrap;rounded=0;glass=0;fontStyle=1" vertex="1" parent="1">
          <mxGeometry x="229" y="-148" width="251.5" height="30" as="geometry" />
        </mxCell>
        <mxCell id="t3ik7iQPuACF-C9qo4bP-210" value="序表结果队列先进先出，依次匹配" style="text;html=1;strokeColor=none;fillColor=none;align=center;verticalAlign=middle;whiteSpace=wrap;rounded=0;glass=0;fontStyle=1" vertex="1" parent="1">
          <mxGeometry x="1080" y="238.25" width="251.5" height="30" as="geometry" />
        </mxCell>
      </root>
    </mxGraphModel>
  </diagram>
</mxfile>
